<?xml version="1.0" encoding="utf-8"?>
<!-- Generator: Adobe Illustrator 21.0.2, SVG Export Plug-In . SVG Version: 6.00 Build 0)  -->
<svg version="1.1" id="Layer_1" xmlns="http://www.w3.org/2000/svg" xmlns:xlink="http://www.w3.org/1999/xlink" x="0px" y="0px"
	 viewBox="0 0 375.8 64.8" style="enable-background:new 0 0 375.8 64.8;" xml:space="preserve">
<style type="text/css">
	.st0{fill:#ffffff;}
	.st1{fill:#ffffff;}
</style>
<g id="Layer_x0020_1">
	<g id="_149343744">
		<path class="st0" d="M16.6,31.9c-0.5-3.8-1.4-6.8-2.8-8.7s-3-3-4.8-3c-1.2,0-2.2,0.5-3,1.6c-0.9,1.1-1.2,2.4-1.2,4.2
			c0,1.9,0.4,3.7,1.3,5.4s2.4,3.8,4.8,6.4c3.3,3.6,5.6,6.7,7,9.2c1.3,2.5,2,5,2,7.6c0,2.9-0.9,5.3-2.7,7.2s-4.2,2.9-7.5,2.9
			c-1.7,0-3.5-0.7-5.2-2.1c-0.6-0.6-1.2-0.9-1.4-0.9c-1.2,0-1.9,0.8-1.9,2.4h-1V50.4h1c0.5,4.2,1.6,7.6,3.2,9.9
			c1.7,2.2,3.5,3.4,5.5,3.4c1.6,0,2.8-0.5,3.7-1.6s1.3-2.6,1.3-4.6c0-2.2-0.6-4.3-1.7-6.5s-3.1-4.7-5.9-7.6c-2.5-2.7-4.3-5-5.5-7.1
			C0.6,34.2,0,32.1,0,30.1c0-3.5,0.9-6.2,2.6-8.1s3.9-2.9,6.5-2.9c1.4,0,3,0.5,4.8,1.6c0.8,0.5,1.3,0.8,1.7,0.8
			c0.9,0,1.3-0.5,1.3-1.5v-0.2H18V32h-1.1L16.6,31.9z M40.5,64.3h-8.1v-0.8h1.7V46.9h-5.6v16.6h1.7v0.8h-8.1v-0.8h2.2V33.2h-2.2
			v-0.7h8.1v0.7h-1.7v13h5.6v-13h-1.7v-0.7h8.1v0.7h-2.2v30.3h2.2V64.3z M51.1,33.2H49v30.3h2v0.8h-8.4v-0.8h2.2V33.2h-2.2v-0.7H51
			L51.1,33.2L51.1,33.2z M70.8,33.2h-0.6c-1.2,0-2,0.9-2.4,2.6l-5.8,29h-0.9l-6.9-31.5h-2v-0.7h8.3v0.7h-2l4.7,22L67,36
			c0.1-0.6,0.1-1,0.1-1.2c0-1-0.5-1.5-1.6-1.5h-1.2v-0.7h6.5V33.2z M111.5,20.8h-0.7c-1.5,0-2.3,0.6-2.3,1.8v41.7h-4.7L90.1,25.5H90
			v33.8c0,2.7,0.9,4,2.7,4h1.5v1.1h-8.5v-1.1c1.2,0,1.9-0.2,2.4-0.6s0.6-1.2,0.6-2.4V20.7h-3v-1.1h8.6L107.1,56h0.1V23.7
			c0-2-1-3-3-3H103v-1.1h8.5V20.8L111.5,20.8z M131.5,64.3h-8.3v-0.8h2l-1.7-8.1h-5.8c-0.9,4.1-1.2,6.3-1.2,6.7c0,1,0.5,1.5,1.6,1.5
			h1.2v0.8h-6.5v-0.8h0.6c1.2,0,2-0.9,2.4-2.5l5.8-28.9h0.9l6.9,31.5h2v0.6H131.5z M123.4,54.6l-2.8-13.2l-2.7,13.2H123.4z
			 M132.6,32.4h8.4c2.7,0,4.6,1.4,5.6,4c1.1,2.7,1.6,6.8,1.6,12.3c0,4.1-0.3,7.3-0.8,9.4c-0.5,2.2-1.4,3.7-2.4,4.7
			c-1.2,1-2.6,1.4-4.5,1.4h-7.9v-0.8h2.2V33.2h-2.2L132.6,32.4L132.6,32.4z M143.6,58.9V36.3c0-0.9-0.3-1.7-0.8-2.2
			c-0.5-0.6-1.2-0.9-2.1-0.9h-1.9v30.3h1.4c1.2,0,1.9-0.4,2.5-1.2C143.4,61.5,143.6,60.4,143.6,58.9z M167.5,64.3h-8.3v-0.8h2
			l-1.7-8.1h-5.8c-0.9,4.1-1.2,6.3-1.2,6.7c0,1,0.5,1.5,1.6,1.5h1.2v0.8h-6.5v-0.8h0.6c1.2,0,2-0.9,2.4-2.5l5.8-28.9h0.9l6.9,31.5h2
			v0.6H167.5z M159.3,54.6l-2.8-13.2l-2.7,13.2H159.3z M186.3,61.2c-0.4,2.2-1.4,3.2-3.2,3.2c-1.2,0-2.2-0.5-3-1.5
			c-0.7-1-1-2.5-1-4.5v-8.2c0-0.9-0.2-1.7-0.6-2.1s-1-0.7-1.7-0.7h-2v16.1h2.2v0.8h-8.4v-0.8h2.2V33.2h-2.2v-0.7h9.2
			c1.9,0,3.5,0.6,4.5,1.9c1,1.3,1.6,3.1,1.6,5.4c0,2.3-0.4,4-1.2,5c-0.8,1.1-1.9,1.8-3.6,2.2v0.1h0.4c1.2,0,2.2,0.5,2.9,1.4
			s1.1,2.2,1.1,3.9V61c0,1.1,0.3,1.7,0.9,1.7c0.6,0,1.1-0.5,1.2-1.5l0.8,0.1L186.3,61.2z M179.3,43.5v-6.3c0-1.4-0.2-2.4-0.6-3
			c-0.4-0.6-1.1-1-1.9-1h-1.9v13.5h2c0.7,0,1.3-0.3,1.7-0.9C179,45.3,179.2,44.5,179.3,43.5L179.3,43.5z M224.1,20.8h-1
			c-0.6,0-1.2,0.2-1.6,0.6c-0.4,0.4-0.6,1-0.6,1.7v32.8c0,3-0.7,5.1-2.2,6.6c-1.4,1.4-3.5,2.2-6.3,2.2c-2.7,0-4.8-0.9-6.3-2.7
			s-2.2-4.3-2.2-7.7V20.8h-3v-1.1h11.8v1.1h-3v38c0,1.4,0.4,2.5,1.2,3.3s1.9,1.2,3.3,1.2c1.7,0,3-0.6,4-1.9c0.9-1.3,1.4-3.2,1.4-5.5
			V23.2c0-0.7-0.2-1.2-0.6-1.7c-0.4-0.4-0.9-0.6-1.6-0.6h-1v-1.1h7.5L224.1,20.8L224.1,20.8z M244.7,33.2h-0.5
			c-1.1,0-1.7,0.4-1.7,1.3v29.7h-3.3l-9.9-27.7h-0.1v24.2c0,1.9,0.6,2.8,1.9,2.8h1.1v0.8h-6v-0.8c0.8,0,1.4-0.1,1.7-0.4
			c0.3-0.3,0.4-0.9,0.4-1.7V33.2h-2.2v-0.7h6.2l9.1,26h0.1v-23c0-1.4-0.7-2.2-2.1-2.2h-0.9v-0.7h6L244.7,33.2L244.7,33.2z
			 M255.2,33.2H253v30.3h2.1v0.8h-8.4v-0.8h2.2V33.2h-2.2v-0.7h8.4L255.2,33.2L255.2,33.2z M274.9,33.2h-0.6c-1.2,0-2,0.9-2.4,2.6
			l-5.9,29h-0.9l-6.9-31.5h-2v-0.7h8.3v0.7h-2l4.7,22l3.9-19.3c0.1-0.6,0.1-1,0.1-1.2c0-1-0.5-1.5-1.6-1.5h-1.2v-0.7h6.5V33.2z
			 M290.8,64.3h-14.9v-0.8h2.2V33.2h-2.2v-0.7h14.8v7h-0.8c-0.3-2.2-0.8-3.7-1.5-4.8c-0.7-1-1.8-1.5-3.2-1.5h-3v13.7h2.1
			c0.9,0,1.7-0.3,2.3-0.9c0.6-0.6,0.9-1.4,0.9-2.3v-1.2h0.8v10.2h-0.7v-0.3c0-1.4-0.3-2.5-0.9-3.4s-1.4-1.2-2.3-1.2h-2.2v15.8h2.5
			c1.6,0,2.7-0.6,3.5-1.8s1.4-3.1,1.8-5.7h0.7L290.8,64.3L290.8,64.3z M310.9,61.2c-0.4,2.2-1.4,3.2-3.2,3.2c-1.2,0-2.2-0.5-3-1.5
			c-0.7-1-1-2.5-1-4.5v-8.2c0-0.9-0.2-1.7-0.6-2.1c-0.4-0.4-1-0.7-1.7-0.7h-2v16.1h2.2v0.8h-8.4v-0.8h2.2V33.2h-2.2v-0.7h9.2
			c1.9,0,3.5,0.6,4.5,1.9c1,1.3,1.6,3.1,1.6,5.4c0,2.3-0.4,4-1.2,5c-0.8,1.1-1.9,1.8-3.6,2.2v0.1h0.4c1.2,0,2.2,0.5,2.9,1.4
			s1.1,2.2,1.1,3.9V61c0,1.1,0.3,1.7,0.9,1.7s1.1-0.5,1.2-1.5l0.8,0.1L310.9,61.2z M303.8,43.5v-6.3c0-1.4-0.2-2.4-0.6-3
			c-0.4-0.6-1.1-1-1.9-1h-1.9v13.5h2c0.7,0,1.3-0.3,1.7-0.9S303.8,44.5,303.8,43.5L303.8,43.5z M324.7,41.2c-0.4-2.7-1-4.8-2-6.3
			c-0.9-1.4-2.1-2.1-3.4-2.1c-0.9,0-1.6,0.4-2.2,1.2s-0.9,1.8-0.9,3c0,1.4,0.3,2.7,0.9,3.9s1.7,2.7,3.5,4.5c2.4,2.6,4,4.8,5,6.6
			c0.9,1.8,1.4,3.6,1.4,5.4c0,2.1-0.6,3.8-1.9,5.2c-1.3,1.4-3,2-5.3,2c-1.2,0-2.5-0.5-3.7-1.5c-0.5-0.4-0.8-0.6-1-0.6
			c-0.9,0-1.3,0.6-1.4,1.7H313v-9.9h0.7c0.4,3,1.2,5.4,2.3,7.1c1.2,1.7,2.4,2.4,3.9,2.4c1.2,0,2-0.4,2.7-1.2
			c0.6-0.8,0.9-1.9,0.9-3.2c0-1.6-0.4-3.1-1.2-4.6c-0.8-1.5-2.2-3.4-4.2-5.5c-1.8-1.9-3.1-3.6-3.9-5.1s-1.2-3-1.2-4.4
			c0-2.5,0.6-4.4,1.8-5.8c1.2-1.4,2.7-2,4.6-2c1,0,2.2,0.4,3.4,1.2c0.6,0.4,0.9,0.6,1.2,0.6c0.6,0,0.9-0.4,0.9-1.1v-0.1h0.8v8.7
			h-0.8L324.7,41.2z M337.5,33.2h-2.2v30.3h2.1v0.8H329v-0.8h2.2V33.2H329v-0.7h8.4L337.5,33.2L337.5,33.2z M356,40.9h-0.8
			c-0.2-2.7-0.8-4.7-1.6-5.8c-0.9-1.2-2.1-1.8-3.7-1.8v30.3h2.2v0.8h-8.4v-0.8h2.2V33.2c-1.7,0-3,0.6-3.7,1.8
			c-0.8,1.2-1.4,3.2-1.6,5.8h-0.8v-8.4H356V40.9z M375.8,33.2c-0.3,0-0.6,0-0.9,0.1c-0.2,0.1-0.4,0.1-0.6,0.2
			c-0.2,0.1-0.4,0.2-0.5,0.4c-0.1,0.1-0.3,0.4-0.4,0.6c-0.1,0.2-0.2,0.5-0.4,0.9l-4.4,14.3v13.8h2.2v0.8h-8.4v-0.8h2.2V49.8
			l-5.1-16.6h-2.2v-0.7h8.6v0.7h-2.2l4.5,15h0.1l3-9.8c0.7-2.4,1.2-3.8,1.2-4.2c0-0.6-0.4-1-1.2-1h-0.9v-0.7h5.5v0.7H375.8z"/>
		<path class="st1" d="M181.6,3.9H66.5c16-1.1,68.7-2.6,114.3-2.2C181.1,2.3,181.4,3.3,181.6,3.9L181.6,3.9z"/>
		<path class="st1" d="M181.6,4.4H66.5c16,1.1,68.7,2.6,114.3,2.2C181.1,6,181.4,5,181.6,4.4L181.6,4.4z"/>
		<path class="st1" d="M191.9,3.9H307c-16-1.1-68.8-2.6-114.3-2.2C192.4,2.3,192.1,3.3,191.9,3.9L191.9,3.9z"/>
		<path class="st1" d="M191.9,4.4H307C291,5.5,238.3,7,192.7,6.6C192.4,6,192.1,5,191.9,4.4L191.9,4.4z"/>
		<polygon class="st1" points="180.8,0.6 182.7,4.1 180.7,7.6 184.5,4.7 186.8,8.3 189.1,4.7 192.9,7.6 190.9,4.1 192.8,0.6
			188.9,3.4 186.8,0 184.7,3.4 		"/>
	</g>
</g>
</svg>
